<mxfile host="app.diagrams.net" modified="2023-04-25T12:58:21.986Z" agent="Mozilla/5.0 (Windows NT 10.0; Win64; x64) AppleWebKit/537.36 (KHTML, like Gecko) Chrome/112.0.0.0 Safari/537.36 Edg/112.0.1722.58" etag="KyjEL7o908i9j1YIU608" version="21.2.1" type="device">
  <diagram name="Σελίδα-1" id="Ot3h_hcZ658lHFySmNzD">
    <mxGraphModel dx="305" dy="486" grid="1" gridSize="10" guides="1" tooltips="1" connect="1" arrows="1" fold="1" page="1" pageScale="1" pageWidth="1169" pageHeight="827" math="0" shadow="0">
      <root>
        <mxCell id="0" />
        <mxCell id="1" parent="0" />
        <mxCell id="1OEqbM9P8AJgJZlWs_jV-3" style="rounded=0;orthogonalLoop=1;jettySize=auto;html=1;entryX=0.002;entryY=0.502;entryDx=0;entryDy=0;entryPerimeter=0;" parent="1" source="1OEqbM9P8AJgJZlWs_jV-2" target="1OEqbM9P8AJgJZlWs_jV-4" edge="1">
          <mxGeometry relative="1" as="geometry">
            <mxPoint x="270" y="291" as="targetPoint" />
          </mxGeometry>
        </mxCell>
        <mxCell id="1OEqbM9P8AJgJZlWs_jV-2" value="Ιδιοκτήτης" style="shape=umlActor;verticalLabelPosition=bottom;verticalAlign=top;html=1;outlineConnect=0;" parent="1" vertex="1">
          <mxGeometry x="70" y="261" width="30" height="60" as="geometry" />
        </mxCell>
        <mxCell id="1OEqbM9P8AJgJZlWs_jV-5" style="edgeStyle=orthogonalEdgeStyle;rounded=0;orthogonalLoop=1;jettySize=auto;html=1;entryX=0.003;entryY=0.497;entryDx=0;entryDy=0;entryPerimeter=0;" parent="1" source="1OEqbM9P8AJgJZlWs_jV-4" target="1OEqbM9P8AJgJZlWs_jV-7" edge="1">
          <mxGeometry relative="1" as="geometry">
            <mxPoint x="540" y="291" as="targetPoint" />
          </mxGeometry>
        </mxCell>
        <mxCell id="1OEqbM9P8AJgJZlWs_jV-33" style="edgeStyle=orthogonalEdgeStyle;rounded=0;orthogonalLoop=1;jettySize=auto;html=1;entryX=0.012;entryY=0.561;entryDx=0;entryDy=0;entryPerimeter=0;strokeColor=#ff0000;exitX=0.196;exitY=0.722;exitDx=0;exitDy=0;exitPerimeter=0;" parent="1" source="1OEqbM9P8AJgJZlWs_jV-4" target="1OEqbM9P8AJgJZlWs_jV-35" edge="1">
          <mxGeometry relative="1" as="geometry">
            <mxPoint x="270" y="440.9999999999999" as="targetPoint" />
            <Array as="points">
              <mxPoint x="229" y="309" />
              <mxPoint x="229" y="466" />
            </Array>
          </mxGeometry>
        </mxCell>
        <mxCell id="1OEqbM9P8AJgJZlWs_jV-4" value="Αρχική Οθόνη" style="shape=umlBoundary;whiteSpace=wrap;html=1;" parent="1" vertex="1">
          <mxGeometry x="220" y="251" width="100" height="80" as="geometry" />
        </mxCell>
        <mxCell id="1OEqbM9P8AJgJZlWs_jV-6" value="&lt;font style=&quot;font-size: 11px;&quot;&gt;Επιλογή «Διαχείριση Προπονήσεων»&lt;/font&gt;" style="text;html=1;align=center;verticalAlign=middle;resizable=0;points=[];autosize=1;strokeColor=none;fillColor=none;" parent="1" vertex="1">
          <mxGeometry x="320" y="269" width="200" height="30" as="geometry" />
        </mxCell>
        <mxCell id="1OEqbM9P8AJgJZlWs_jV-9" style="rounded=0;orthogonalLoop=1;jettySize=auto;html=1;entryX=-0.006;entryY=0.503;entryDx=0;entryDy=0;entryPerimeter=0;" parent="1" source="1OEqbM9P8AJgJZlWs_jV-7" target="1OEqbM9P8AJgJZlWs_jV-8" edge="1">
          <mxGeometry relative="1" as="geometry" />
        </mxCell>
        <mxCell id="1OEqbM9P8AJgJZlWs_jV-7" value="Εμφάνισε" style="ellipse;shape=umlControl;whiteSpace=wrap;html=1;" parent="1" vertex="1">
          <mxGeometry x="541" y="251" width="70" height="80" as="geometry" />
        </mxCell>
        <mxCell id="1OEqbM9P8AJgJZlWs_jV-11" style="rounded=0;orthogonalLoop=1;jettySize=auto;html=1;entryX=0.004;entryY=0.537;entryDx=0;entryDy=0;entryPerimeter=0;" parent="1" source="1OEqbM9P8AJgJZlWs_jV-8" target="1OEqbM9P8AJgJZlWs_jV-10" edge="1">
          <mxGeometry relative="1" as="geometry" />
        </mxCell>
        <mxCell id="1OEqbM9P8AJgJZlWs_jV-8" value="Σελίδα Διαχείρισης&lt;br&gt;Προπονήσεων&lt;br&gt;" style="shape=umlBoundary;whiteSpace=wrap;html=1;" parent="1" vertex="1">
          <mxGeometry x="680" y="251" width="100" height="80" as="geometry" />
        </mxCell>
        <mxCell id="1OEqbM9P8AJgJZlWs_jV-13" style="rounded=0;orthogonalLoop=1;jettySize=auto;html=1;entryX=0.601;entryY=-0.002;entryDx=0;entryDy=0;entryPerimeter=0;" parent="1" source="1OEqbM9P8AJgJZlWs_jV-10" target="NsCVuXY4o8_-mgdWiNp_-2" edge="1">
          <mxGeometry relative="1" as="geometry">
            <mxPoint x="972.8800000000001" y="381" as="targetPoint" />
          </mxGeometry>
        </mxCell>
        <mxCell id="NsCVuXY4o8_-mgdWiNp_-3" style="edgeStyle=orthogonalEdgeStyle;rounded=0;orthogonalLoop=1;jettySize=auto;html=1;entryX=0.585;entryY=-0.012;entryDx=0;entryDy=0;entryPerimeter=0;exitX=0.501;exitY=0.127;exitDx=0;exitDy=0;exitPerimeter=0;fontColor=#FF0000;strokeColor=#FF0000;" parent="1" source="1OEqbM9P8AJgJZlWs_jV-10" target="1OEqbM9P8AJgJZlWs_jV-8" edge="1">
          <mxGeometry relative="1" as="geometry">
            <Array as="points">
              <mxPoint x="994" y="231" />
              <mxPoint x="739" y="231" />
            </Array>
          </mxGeometry>
        </mxCell>
        <mxCell id="1OEqbM9P8AJgJZlWs_jV-10" value="Έλεγχος&lt;br&gt;μελλονιτκής&lt;br&gt;ημερομηνίας" style="ellipse;shape=umlControl;whiteSpace=wrap;html=1;" parent="1" vertex="1">
          <mxGeometry x="951" y="238" width="85.76" height="98" as="geometry" />
        </mxCell>
        <mxCell id="1OEqbM9P8AJgJZlWs_jV-12" value="&lt;font color=&quot;#ff0000&quot; style=&quot;font-size: 11px;&quot;&gt;Επιλογή ημερομηνίας&lt;/font&gt;" style="text;html=1;align=center;verticalAlign=middle;resizable=0;points=[];autosize=1;strokeColor=none;fillColor=none;" parent="1" vertex="1">
          <mxGeometry x="330.5" y="560" width="130" height="30" as="geometry" />
        </mxCell>
        <mxCell id="1OEqbM9P8AJgJZlWs_jV-16" style="rounded=0;orthogonalLoop=1;jettySize=auto;html=1;entryX=1.005;entryY=0.496;entryDx=0;entryDy=0;exitX=-0.002;exitY=0.503;exitDx=0;exitDy=0;exitPerimeter=0;entryPerimeter=0;" parent="1" source="NsCVuXY4o8_-mgdWiNp_-2" target="NsCVuXY4o8_-mgdWiNp_-7" edge="1">
          <mxGeometry relative="1" as="geometry">
            <mxPoint x="815.999999999998" y="421" as="targetPoint" />
            <mxPoint x="932.8800000000001" y="421" as="sourcePoint" />
          </mxGeometry>
        </mxCell>
        <mxCell id="1OEqbM9P8AJgJZlWs_jV-17" value="&lt;font style=&quot;font-size: 11px;&quot;&gt;Επεξεργασία&lt;br&gt;Προπόνησης&lt;/font&gt;" style="text;html=1;align=center;verticalAlign=middle;resizable=0;points=[];autosize=1;strokeColor=none;fillColor=none;" parent="1" vertex="1">
          <mxGeometry x="836" y="377" width="90" height="40" as="geometry" />
        </mxCell>
        <mxCell id="1OEqbM9P8AJgJZlWs_jV-19" style="edgeStyle=orthogonalEdgeStyle;rounded=0;orthogonalLoop=1;jettySize=auto;html=1;entryX=1.001;entryY=0.556;entryDx=0;entryDy=0;entryPerimeter=0;exitX=-0.004;exitY=0.502;exitDx=0;exitDy=0;exitPerimeter=0;" parent="1" source="NsCVuXY4o8_-mgdWiNp_-7" target="1OEqbM9P8AJgJZlWs_jV-20" edge="1">
          <mxGeometry relative="1" as="geometry">
            <mxPoint x="870" y="577" as="targetPoint" />
            <mxPoint x="728" y="421" as="sourcePoint" />
          </mxGeometry>
        </mxCell>
        <mxCell id="1OEqbM9P8AJgJZlWs_jV-27" style="edgeStyle=orthogonalEdgeStyle;rounded=0;orthogonalLoop=1;jettySize=auto;html=1;strokeColor=#FF0000;fillColor=#e51400;entryX=0.498;entryY=0.118;entryDx=0;entryDy=0;entryPerimeter=0;exitX=0.6;exitY=0.999;exitDx=0;exitDy=0;exitPerimeter=0;" parent="1" source="NsCVuXY4o8_-mgdWiNp_-7" target="1OEqbM9P8AJgJZlWs_jV-29" edge="1">
          <mxGeometry relative="1" as="geometry">
            <mxPoint x="974" y="681" as="targetPoint" />
            <mxPoint x="772.0000000000002" y="465" as="sourcePoint" />
          </mxGeometry>
        </mxCell>
        <mxCell id="1OEqbM9P8AJgJZlWs_jV-31" style="edgeStyle=orthogonalEdgeStyle;rounded=0;orthogonalLoop=1;jettySize=auto;html=1;entryX=0.967;entryY=0.717;entryDx=0;entryDy=0;entryPerimeter=0;exitX=-0.005;exitY=0.544;exitDx=0;exitDy=0;exitPerimeter=0;" parent="1" source="V9a0yabX9GY4hemXjsk--4" target="1OEqbM9P8AJgJZlWs_jV-4" edge="1">
          <mxGeometry relative="1" as="geometry">
            <Array as="points">
              <mxPoint x="450" y="341" />
              <mxPoint x="317" y="342" />
            </Array>
          </mxGeometry>
        </mxCell>
        <mxCell id="n6NiaX9B8Hsq6csQ88jB-2" style="edgeStyle=orthogonalEdgeStyle;rounded=0;orthogonalLoop=1;jettySize=auto;html=1;entryX=0.277;entryY=0.866;entryDx=0;entryDy=0;entryPerimeter=0;strokeColor=#FF0000;" parent="1" source="1OEqbM9P8AJgJZlWs_jV-20" target="NsCVuXY4o8_-mgdWiNp_-7" edge="1">
          <mxGeometry relative="1" as="geometry">
            <Array as="points">
              <mxPoint x="577" y="470" />
              <mxPoint x="743" y="470" />
            </Array>
          </mxGeometry>
        </mxCell>
        <mxCell id="V9a0yabX9GY4hemXjsk--5" style="edgeStyle=orthogonalEdgeStyle;rounded=0;orthogonalLoop=1;jettySize=auto;html=1;entryX=1.011;entryY=0.552;entryDx=0;entryDy=0;entryPerimeter=0;exitX=0.504;exitY=0.122;exitDx=0;exitDy=0;exitPerimeter=0;" edge="1" parent="1" source="1OEqbM9P8AJgJZlWs_jV-20" target="V9a0yabX9GY4hemXjsk--4">
          <mxGeometry relative="1" as="geometry">
            <Array as="points">
              <mxPoint x="577" y="360" />
              <mxPoint x="551" y="360" />
              <mxPoint x="551" y="342" />
            </Array>
          </mxGeometry>
        </mxCell>
        <mxCell id="1OEqbM9P8AJgJZlWs_jV-20" value="Έλεγχος&lt;br&gt;πεδίων" style="ellipse;shape=umlControl;whiteSpace=wrap;html=1;" parent="1" vertex="1">
          <mxGeometry x="542" y="377" width="70" height="80" as="geometry" />
        </mxCell>
        <mxCell id="1OEqbM9P8AJgJZlWs_jV-26" value="&lt;font style=&quot;font-size: 11px;&quot;&gt;Επιλογή &lt;br&gt;«Αποθήκευσης»&lt;/font&gt;" style="text;html=1;align=center;verticalAlign=middle;resizable=0;points=[];autosize=1;strokeColor=none;fillColor=none;" parent="1" vertex="1">
          <mxGeometry x="617.01" y="383" width="100" height="40" as="geometry" />
        </mxCell>
        <mxCell id="1OEqbM9P8AJgJZlWs_jV-28" value="&lt;font color=&quot;#ff0000&quot;&gt;Επιλογή&lt;br&gt;«Ακύρωσης»&lt;/font&gt;" style="text;html=1;align=center;verticalAlign=middle;resizable=0;points=[];autosize=1;strokeColor=none;fillColor=none;" parent="1" vertex="1">
          <mxGeometry x="770" y="474" width="90" height="40" as="geometry" />
        </mxCell>
        <mxCell id="NsCVuXY4o8_-mgdWiNp_-8" style="edgeStyle=orthogonalEdgeStyle;rounded=0;orthogonalLoop=1;jettySize=auto;html=1;entryX=0.783;entryY=0.939;entryDx=0;entryDy=0;entryPerimeter=0;elbow=vertical;strokeColor=#FF0000;" parent="1" source="1OEqbM9P8AJgJZlWs_jV-29" target="1OEqbM9P8AJgJZlWs_jV-4" edge="1">
          <mxGeometry relative="1" as="geometry">
            <Array as="points">
              <mxPoint x="620" y="571" />
              <mxPoint x="620" y="490" />
              <mxPoint x="510" y="490" />
              <mxPoint x="510" y="380" />
              <mxPoint x="298" y="380" />
            </Array>
          </mxGeometry>
        </mxCell>
        <mxCell id="1OEqbM9P8AJgJZlWs_jV-29" value="&lt;font color=&quot;#ff0000&quot;&gt;Ενημέρωση&lt;br&gt;συστήματος και χρηστών&lt;br&gt;&lt;/font&gt;" style="ellipse;shape=umlControl;whiteSpace=wrap;html=1;strokeColor=#000000;" parent="1" vertex="1">
          <mxGeometry x="740" y="531" width="77.88" height="89" as="geometry" />
        </mxCell>
        <mxCell id="1OEqbM9P8AJgJZlWs_jV-32" value="&lt;font style=&quot;font-size: 11px;&quot;&gt;Επιστροφή στην &lt;br&gt;«Αρχική Οθόνη»&lt;/font&gt;" style="text;html=1;align=center;verticalAlign=middle;resizable=0;points=[];autosize=1;strokeColor=none;fillColor=none;" parent="1" vertex="1">
          <mxGeometry x="344.5" y="304" width="100" height="40" as="geometry" />
        </mxCell>
        <mxCell id="1OEqbM9P8AJgJZlWs_jV-34" value="&lt;font color=&quot;#ff0000&quot; style=&quot;font-size: 11px;&quot;&gt;Επιλογή&lt;br&gt;«Διαχείριση ωρών λειτουργίας»&lt;/font&gt;" style="text;html=1;align=center;verticalAlign=middle;resizable=0;points=[];autosize=1;strokeColor=none;fillColor=none;" parent="1" vertex="1">
          <mxGeometry x="50" y="370" width="180" height="40" as="geometry" />
        </mxCell>
        <mxCell id="1OEqbM9P8AJgJZlWs_jV-37" style="rounded=0;orthogonalLoop=1;jettySize=auto;html=1;entryX=0.587;entryY=0;entryDx=0;entryDy=0;entryPerimeter=0;strokeColor=#ff0000;" parent="1" source="1OEqbM9P8AJgJZlWs_jV-35" target="1OEqbM9P8AJgJZlWs_jV-36" edge="1">
          <mxGeometry relative="1" as="geometry">
            <mxPoint x="300" y="531" as="targetPoint" />
          </mxGeometry>
        </mxCell>
        <mxCell id="1OEqbM9P8AJgJZlWs_jV-35" value="&lt;font color=&quot;#ff0000&quot;&gt;Εμφάνισε&lt;/font&gt;" style="ellipse;shape=umlControl;whiteSpace=wrap;html=1;strokeColor=#000000;" parent="1" vertex="1">
          <mxGeometry x="249" y="421" width="70" height="80" as="geometry" />
        </mxCell>
        <mxCell id="1OEqbM9P8AJgJZlWs_jV-39" style="rounded=0;orthogonalLoop=1;jettySize=auto;html=1;entryX=0;entryY=0.541;entryDx=0;entryDy=0;entryPerimeter=0;strokeColor=#ff0000;" parent="1" source="1OEqbM9P8AJgJZlWs_jV-36" target="1OEqbM9P8AJgJZlWs_jV-38" edge="1">
          <mxGeometry relative="1" as="geometry" />
        </mxCell>
        <mxCell id="1OEqbM9P8AJgJZlWs_jV-36" value="&lt;font color=&quot;#ff0000&quot;&gt;Σελίδα Διαχείρισης&lt;br&gt;Ωρών Λειτουργίας&lt;/font&gt;" style="shape=umlBoundary;whiteSpace=wrap;html=1;strokeColor=#000000;" parent="1" vertex="1">
          <mxGeometry x="218" y="539" width="112.5" height="90" as="geometry" />
        </mxCell>
        <mxCell id="1OEqbM9P8AJgJZlWs_jV-41" style="edgeStyle=orthogonalEdgeStyle;rounded=0;orthogonalLoop=1;jettySize=auto;html=1;entryX=0.506;entryY=1.004;entryDx=0;entryDy=0;entryPerimeter=0;strokeColor=#FF0000;exitX=0.498;exitY=0.119;exitDx=0;exitDy=0;exitPerimeter=0;" parent="1" source="1OEqbM9P8AJgJZlWs_jV-38" target="1OEqbM9P8AJgJZlWs_jV-40" edge="1">
          <mxGeometry relative="1" as="geometry" />
        </mxCell>
        <mxCell id="V9a0yabX9GY4hemXjsk--2" style="edgeStyle=orthogonalEdgeStyle;rounded=0;orthogonalLoop=1;jettySize=auto;html=1;entryX=0.577;entryY=0.995;entryDx=0;entryDy=0;entryPerimeter=0;strokeColor=#FF0000;" edge="1" parent="1" source="1OEqbM9P8AJgJZlWs_jV-38" target="1OEqbM9P8AJgJZlWs_jV-36">
          <mxGeometry relative="1" as="geometry">
            <mxPoint x="290" y="630" as="targetPoint" />
            <Array as="points">
              <mxPoint x="512" y="650" />
              <mxPoint x="283" y="650" />
            </Array>
          </mxGeometry>
        </mxCell>
        <mxCell id="1OEqbM9P8AJgJZlWs_jV-38" value="&lt;font color=&quot;#ff0000&quot;&gt;Έλεγχος&lt;br&gt;μελλονιτκής&lt;br&gt;ημερομηνίας&lt;/font&gt;" style="ellipse;shape=umlControl;whiteSpace=wrap;html=1;strokeColor=#000000;" parent="1" vertex="1">
          <mxGeometry x="469" y="531" width="85.76" height="98" as="geometry" />
        </mxCell>
        <mxCell id="1OEqbM9P8AJgJZlWs_jV-42" style="edgeStyle=orthogonalEdgeStyle;rounded=0;orthogonalLoop=1;jettySize=auto;html=1;entryX=0.62;entryY=0.992;entryDx=0;entryDy=0;entryPerimeter=0;exitX=0.461;exitY=0.132;exitDx=0;exitDy=0;exitPerimeter=0;strokeColor=#FF0000;" parent="1" source="1OEqbM9P8AJgJZlWs_jV-40" target="1OEqbM9P8AJgJZlWs_jV-4" edge="1">
          <mxGeometry relative="1" as="geometry">
            <Array as="points">
              <mxPoint x="432" y="410" />
              <mxPoint x="282" y="410" />
            </Array>
          </mxGeometry>
        </mxCell>
        <mxCell id="1OEqbM9P8AJgJZlWs_jV-40" value="&lt;font color=&quot;#ff0000&quot;&gt;Ενημέρωση&lt;/font&gt;" style="ellipse;shape=umlControl;whiteSpace=wrap;html=1;strokeColor=#000000;" parent="1" vertex="1">
          <mxGeometry x="399.87" y="410" width="69.13" height="79" as="geometry" />
        </mxCell>
        <mxCell id="1OEqbM9P8AJgJZlWs_jV-43" value="&lt;font style=&quot;font-size: 11px;&quot; color=&quot;#ff0000&quot;&gt;Επιστροφή στην «Αρχική Οθόνη»&lt;/font&gt;" style="text;html=1;align=center;verticalAlign=middle;resizable=0;points=[];autosize=1;strokeColor=none;fillColor=none;" parent="1" vertex="1">
          <mxGeometry x="272" y="385" width="190" height="30" as="geometry" />
        </mxCell>
        <mxCell id="1OEqbM9P8AJgJZlWs_jV-44" style="edgeStyle=orthogonalEdgeStyle;rounded=0;orthogonalLoop=1;jettySize=auto;html=1;strokeColor=#ff0000;exitX=0.595;exitY=0.002;exitDx=0;exitDy=0;exitPerimeter=0;entryX=0.502;entryY=1.005;entryDx=0;entryDy=0;entryPerimeter=0;" parent="1" source="1OEqbM9P8AJgJZlWs_jV-4" target="1OEqbM9P8AJgJZlWs_jV-45" edge="1">
          <mxGeometry relative="1" as="geometry">
            <mxPoint x="270" y="150" as="targetPoint" />
            <mxPoint x="280" y="341" as="sourcePoint" />
          </mxGeometry>
        </mxCell>
        <mxCell id="1OEqbM9P8AJgJZlWs_jV-47" style="edgeStyle=orthogonalEdgeStyle;rounded=0;orthogonalLoop=1;jettySize=auto;html=1;entryX=-0.001;entryY=0.499;entryDx=0;entryDy=0;entryPerimeter=0;strokeColor=#FF0000;" parent="1" source="1OEqbM9P8AJgJZlWs_jV-45" target="1OEqbM9P8AJgJZlWs_jV-46" edge="1">
          <mxGeometry relative="1" as="geometry" />
        </mxCell>
        <mxCell id="1OEqbM9P8AJgJZlWs_jV-45" value="&lt;font color=&quot;#ff0000&quot;&gt;Εμφάνισε&lt;/font&gt;" style="ellipse;shape=umlControl;whiteSpace=wrap;html=1;strokeColor=#000000;" parent="1" vertex="1">
          <mxGeometry x="244" y="130" width="70" height="80" as="geometry" />
        </mxCell>
        <mxCell id="1OEqbM9P8AJgJZlWs_jV-49" style="edgeStyle=orthogonalEdgeStyle;rounded=0;orthogonalLoop=1;jettySize=auto;html=1;strokeColor=#ff0000;" parent="1" source="1OEqbM9P8AJgJZlWs_jV-46" target="1OEqbM9P8AJgJZlWs_jV-48" edge="1">
          <mxGeometry relative="1" as="geometry" />
        </mxCell>
        <mxCell id="1OEqbM9P8AJgJZlWs_jV-46" value="&lt;font color=&quot;#ff0000&quot;&gt;Σελίδα Αναφορών&lt;/font&gt;" style="shape=umlBoundary;whiteSpace=wrap;html=1;strokeColor=#000000;" parent="1" vertex="1">
          <mxGeometry x="374.5" y="125" width="112.5" height="90" as="geometry" />
        </mxCell>
        <mxCell id="n6NiaX9B8Hsq6csQ88jB-1" style="edgeStyle=orthogonalEdgeStyle;rounded=0;orthogonalLoop=1;jettySize=auto;html=1;entryX=0.85;entryY=0.113;entryDx=0;entryDy=0;entryPerimeter=0;strokeColor=#FF0000;" parent="1" source="1OEqbM9P8AJgJZlWs_jV-48" target="1OEqbM9P8AJgJZlWs_jV-4" edge="1">
          <mxGeometry relative="1" as="geometry">
            <Array as="points">
              <mxPoint x="673" y="230" />
              <mxPoint x="305" y="230" />
            </Array>
          </mxGeometry>
        </mxCell>
        <mxCell id="1OEqbM9P8AJgJZlWs_jV-48" value="&lt;font color=&quot;#ff0000&quot;&gt;Ενημέρωση&lt;/font&gt;" style="ellipse;shape=umlControl;whiteSpace=wrap;html=1;strokeColor=#000000;" parent="1" vertex="1">
          <mxGeometry x="638.44" y="131" width="69.13" height="79" as="geometry" />
        </mxCell>
        <mxCell id="1OEqbM9P8AJgJZlWs_jV-50" value="&lt;font color=&quot;#ff0000&quot;&gt;Κατάταξη αναφορών&lt;/font&gt;" style="text;html=1;align=center;verticalAlign=middle;resizable=0;points=[];autosize=1;strokeColor=none;fillColor=none;" parent="1" vertex="1">
          <mxGeometry x="498" y="146" width="130" height="30" as="geometry" />
        </mxCell>
        <mxCell id="NsCVuXY4o8_-mgdWiNp_-1" value="Ναι" style="text;html=1;align=center;verticalAlign=middle;resizable=0;points=[];autosize=1;strokeColor=none;fillColor=none;" parent="1" vertex="1">
          <mxGeometry x="988.88" y="342" width="40" height="30" as="geometry" />
        </mxCell>
        <mxCell id="V9a0yabX9GY4hemXjsk--6" style="edgeStyle=orthogonalEdgeStyle;rounded=0;orthogonalLoop=1;jettySize=auto;html=1;entryX=0.869;entryY=0.871;entryDx=0;entryDy=0;entryPerimeter=0;exitX=0.602;exitY=0.999;exitDx=0;exitDy=0;exitPerimeter=0;fontColor=#FF0000;strokeColor=#FF0000;" edge="1" parent="1" source="NsCVuXY4o8_-mgdWiNp_-2" target="NsCVuXY4o8_-mgdWiNp_-7">
          <mxGeometry relative="1" as="geometry">
            <Array as="points">
              <mxPoint x="993" y="470" />
              <mxPoint x="809" y="470" />
            </Array>
          </mxGeometry>
        </mxCell>
        <mxCell id="NsCVuXY4o8_-mgdWiNp_-2" value="Λίστα&lt;br&gt;Προπονήσεων" style="shape=umlBoundary;whiteSpace=wrap;html=1;" parent="1" vertex="1">
          <mxGeometry x="933" y="381" width="100" height="80" as="geometry" />
        </mxCell>
        <mxCell id="NsCVuXY4o8_-mgdWiNp_-4" value="Όχι" style="text;html=1;align=center;verticalAlign=middle;resizable=0;points=[];autosize=1;strokeColor=none;fillColor=none;fontColor=#FF0000;" parent="1" vertex="1">
          <mxGeometry x="830" y="208" width="40" height="30" as="geometry" />
        </mxCell>
        <mxCell id="NsCVuXY4o8_-mgdWiNp_-6" style="rounded=0;orthogonalLoop=1;jettySize=auto;html=1;entryX=0.043;entryY=0.743;entryDx=0;entryDy=0;entryPerimeter=0;" parent="1" source="NsCVuXY4o8_-mgdWiNp_-5" target="1OEqbM9P8AJgJZlWs_jV-10" edge="1">
          <mxGeometry relative="1" as="geometry" />
        </mxCell>
        <mxCell id="NsCVuXY4o8_-mgdWiNp_-5" value="Προπόνση" style="ellipse;shape=umlEntity;whiteSpace=wrap;html=1;" parent="1" vertex="1">
          <mxGeometry x="800" y="302" width="70" height="70" as="geometry" />
        </mxCell>
        <mxCell id="NsCVuXY4o8_-mgdWiNp_-7" value="Πεδία συμπλήρωσης στοιχείων προπόνησης" style="shape=umlBoundary;whiteSpace=wrap;html=1;" parent="1" vertex="1">
          <mxGeometry x="712" y="377" width="111.25" height="89" as="geometry" />
        </mxCell>
        <mxCell id="NsCVuXY4o8_-mgdWiNp_-10" style="rounded=0;orthogonalLoop=1;jettySize=auto;html=1;entryX=0;entryY=0.5;entryDx=0;entryDy=0;exitX=0.869;exitY=0.263;exitDx=0;exitDy=0;exitPerimeter=0;" parent="1" source="1OEqbM9P8AJgJZlWs_jV-20" target="NsCVuXY4o8_-mgdWiNp_-5" edge="1">
          <mxGeometry relative="1" as="geometry">
            <mxPoint x="621.5699999999999" y="372" as="sourcePoint" />
            <mxPoint x="707.5699999999999" y="353" as="targetPoint" />
          </mxGeometry>
        </mxCell>
        <mxCell id="NsCVuXY4o8_-mgdWiNp_-12" style="edgeStyle=orthogonalEdgeStyle;rounded=0;orthogonalLoop=1;jettySize=auto;html=1;entryX=0.022;entryY=0.699;entryDx=0;entryDy=0;entryPerimeter=0;strokeColor=#FF0000;" parent="1" source="NsCVuXY4o8_-mgdWiNp_-11" target="1OEqbM9P8AJgJZlWs_jV-35" edge="1">
          <mxGeometry relative="1" as="geometry" />
        </mxCell>
        <mxCell id="NsCVuXY4o8_-mgdWiNp_-11" value="&lt;font color=&quot;#ff0000&quot;&gt;Γυμναστήριο&lt;/font&gt;" style="ellipse;shape=umlEntity;whiteSpace=wrap;html=1;" parent="1" vertex="1">
          <mxGeometry x="97" y="477" width="80" height="80" as="geometry" />
        </mxCell>
        <mxCell id="NsCVuXY4o8_-mgdWiNp_-14" style="edgeStyle=orthogonalEdgeStyle;rounded=0;orthogonalLoop=1;jettySize=auto;html=1;entryX=-0.01;entryY=0.557;entryDx=0;entryDy=0;entryPerimeter=0;strokeColor=#FF0000;" parent="1" source="NsCVuXY4o8_-mgdWiNp_-13" target="1OEqbM9P8AJgJZlWs_jV-45" edge="1">
          <mxGeometry relative="1" as="geometry" />
        </mxCell>
        <mxCell id="NsCVuXY4o8_-mgdWiNp_-13" value="&lt;font color=&quot;#ff0000&quot;&gt;Αναφορά&lt;/font&gt;" style="ellipse;shape=umlEntity;whiteSpace=wrap;html=1;" parent="1" vertex="1">
          <mxGeometry x="120" y="135" width="80" height="80" as="geometry" />
        </mxCell>
        <mxCell id="n6NiaX9B8Hsq6csQ88jB-3" value="&lt;font color=&quot;#ff0000&quot;&gt;Λάθη στα πεδία&lt;/font&gt;" style="text;html=1;align=center;verticalAlign=middle;resizable=0;points=[];autosize=1;strokeColor=none;fillColor=none;" parent="1" vertex="1">
          <mxGeometry x="602" y="447" width="110" height="30" as="geometry" />
        </mxCell>
        <mxCell id="V9a0yabX9GY4hemXjsk--1" value="&lt;font style=&quot;font-size: 11px;&quot;&gt;Επιλογή ημερομηνίας&lt;/font&gt;" style="text;html=1;align=center;verticalAlign=middle;resizable=0;points=[];autosize=1;strokeColor=none;fillColor=none;" vertex="1" parent="1">
          <mxGeometry x="802" y="265" width="130" height="30" as="geometry" />
        </mxCell>
        <mxCell id="V9a0yabX9GY4hemXjsk--3" value="Όχι" style="text;html=1;align=center;verticalAlign=middle;resizable=0;points=[];autosize=1;strokeColor=none;fillColor=none;" vertex="1" parent="1">
          <mxGeometry x="378" y="627" width="40" height="30" as="geometry" />
        </mxCell>
        <mxCell id="V9a0yabX9GY4hemXjsk--4" value="Ενημέρωση&lt;br&gt;Χρηστών" style="ellipse;shape=umlControl;whiteSpace=wrap;html=1;strokeColor=#000000;" vertex="1" parent="1">
          <mxGeometry x="460.5" y="298" width="70" height="80" as="geometry" />
        </mxCell>
        <mxCell id="V9a0yabX9GY4hemXjsk--7" value="Προσθήκη&lt;br style=&quot;border-color: var(--border-color); font-size: 11px;&quot;&gt;&lt;span style=&quot;font-size: 11px;&quot;&gt;Προπόνησης&lt;/span&gt;" style="text;html=1;align=center;verticalAlign=middle;resizable=0;points=[];autosize=1;strokeColor=none;fillColor=none;fontColor=#FF0000;" vertex="1" parent="1">
          <mxGeometry x="843" y="434" width="90" height="40" as="geometry" />
        </mxCell>
      </root>
    </mxGraphModel>
  </diagram>
</mxfile>
